<?xml version="1.0" encoding="UTF-8" standalone="no"?>
<!-- Created with Inkscape (http://www.inkscape.org/) -->

<svg
   width="159.27881mm"
   height="69.06044mm"
   viewBox="0 0 159.27881 69.06044"
   version="1.1"
   id="svg2173"
   inkscape:version="1.1.1 (3bf5ae0d25, 2021-09-20)"
   sodipodi:docname="noise.svg"
   xmlns:inkscape="http://www.inkscape.org/namespaces/inkscape"
   xmlns:sodipodi="http://sodipodi.sourceforge.net/DTD/sodipodi-0.dtd"
   xmlns="http://www.w3.org/2000/svg"
   xmlns:svg="http://www.w3.org/2000/svg">
  <sodipodi:namedview
     id="namedview2175"
     pagecolor="#505050"
     bordercolor="#eeeeee"
     borderopacity="1"
     inkscape:pageshadow="0"
     inkscape:pageopacity="0"
     inkscape:pagecheckerboard="0"
     inkscape:document-units="mm"
     showgrid="false"
     inkscape:snap-midpoints="true"
     inkscape:zoom="0.25"
     inkscape:cx="788"
     inkscape:cy="420"
     inkscape:window-width="1920"
     inkscape:window-height="1046"
     inkscape:window-x="-11"
     inkscape:window-y="-11"
     inkscape:window-maximized="1"
     inkscape:current-layer="layer1"
     inkscape:snap-smooth-nodes="true"
     inkscape:snap-page="true" />
  <defs
     id="defs2170" />
  <g
     inkscape:label="Camada 1"
     inkscape:groupmode="layer"
     id="layer1"
     transform="translate(1136.1105,14.096423)">
    <rect
       style="fill:#ffffff;stroke-width:0.0483912;stroke-linejoin:round"
       id="rect2524"
       width="13.229167"
       height="6.6145811"
       x="-1166.2119"
       y="206.87247" />
    <rect
       style="fill:#ffffff;stroke-width:0.0483912;stroke-linejoin:round"
       id="rect2606"
       width="13.229167"
       height="6.6145811"
       x="-1152.9828"
       y="206.87247" />
    <rect
       style="fill:#ffffff;stroke-width:0.0483912;stroke-linejoin:round"
       id="rect2608"
       width="13.229167"
       height="6.6145811"
       x="-1139.7537"
       y="206.87247" />
    <rect
       style="fill:#ffffff;stroke-width:0.0483912;stroke-linejoin:round"
       id="rect2610"
       width="13.229167"
       height="6.6145811"
       x="-1126.5245"
       y="206.87247" />
    <rect
       style="fill:#ffffff;stroke-width:0.0483912;stroke-linejoin:round"
       id="rect2612"
       width="13.229167"
       height="6.6145811"
       x="-1113.2954"
       y="206.87247" />
    <rect
       style="fill:#ffffff;stroke-width:0.0483912;stroke-linejoin:round"
       id="rect2614"
       width="13.229167"
       height="6.6145811"
       x="-1100.0663"
       y="206.87247" />
    <rect
       style="fill:#ffffff;stroke-width:0.0483912;stroke-linejoin:round"
       id="rect2616"
       width="13.229167"
       height="6.6145811"
       x="-1086.8372"
       y="206.87247" />
    <rect
       style="fill:#ffffff;stroke-width:0.0483912;stroke-linejoin:round"
       id="rect2618"
       width="13.229167"
       height="6.6145811"
       x="-1073.608"
       y="206.87247" />
    <path
       style="opacity:0.03;fill:none;stroke:#581c87;stroke-width:1.05833;stroke-linecap:round;stroke-linejoin:round;stroke-miterlimit:4;stroke-dasharray:none;stroke-opacity:1"
       d="m -1135.8459,-13.83184 13.2291,6.61458 13.2292,-6.61458 13.2291,6.61458 13.2291,-6.61458 13.2292,6.61458 13.2291,-6.61458 13.2291,6.61458 13.2292,-6.61458 13.2291,6.61458 13.2291,-6.61458 13.22921,6.61458 13.2291,-6.61458"
       id="path2653"
       sodipodi:nodetypes="ccccccccccccc" />
    <path
       style="opacity:0.03;fill:none;stroke:#581c87;stroke-width:1.05833;stroke-linecap:round;stroke-linejoin:round;stroke-miterlimit:4;stroke-dasharray:none;stroke-opacity:1"
       d="m -1135.8459,6.80723 13.2291,6.61458 13.2292,-6.61458 13.2291,6.61458 13.2291,-6.61458 13.2292,6.61458 13.2291,-6.61458 13.2291,6.61458 13.2292,-6.61458 13.2291,6.61458 13.2291,-6.61458 13.22921,6.61458 13.2291,-6.61458"
       id="path3091"
       sodipodi:nodetypes="ccccccccccccc" />
    <path
       style="opacity:0.03;fill:none;stroke:#581c87;stroke-width:1.05833;stroke-linecap:round;stroke-linejoin:round;stroke-miterlimit:4;stroke-dasharray:none;stroke-opacity:1"
       d="m -1135.8459,13.68693 13.2291,6.61458 13.2292,-6.61458 13.2291,6.61458 13.2291,-6.61458 13.2292,6.61458 13.2291,-6.61458 13.2291,6.61458 13.2292,-6.61458 13.2291,6.61458 13.2291,-6.61458 13.22921,6.61458 13.2291,-6.61458"
       id="path3093"
       sodipodi:nodetypes="ccccccccccccc" />
    <path
       style="opacity:0.03;fill:none;stroke:#581c87;stroke-width:1.05833;stroke-linecap:round;stroke-linejoin:round;stroke-miterlimit:4;stroke-dasharray:none;stroke-opacity:1"
       d="m -1135.8459,27.44631 13.2291,6.61458 13.2292,-6.61458 13.2291,6.61458 13.2291,-6.61458 13.2292,6.61458 13.2291,-6.61458 13.2291,6.61458 13.2292,-6.61458 13.2291,6.61458 13.2291,-6.61458 13.22921,6.61458 13.2291,-6.61458"
       id="path3095"
       sodipodi:nodetypes="ccccccccccccc" />
    <path
       style="opacity:0.03;fill:none;stroke:#581c87;stroke-width:1.05833;stroke-linecap:round;stroke-linejoin:round;stroke-miterlimit:4;stroke-dasharray:none;stroke-opacity:1"
       d="m -1135.8459,-0.07246 13.2291,6.61458 13.2292,-6.61458 13.2291,6.61458 13.2291,-6.61458 13.2292,6.61458 13.2291,-6.61458 13.2291,6.61458 13.2292,-6.61458 13.2291,6.61458 13.2291,-6.61458 13.22921,6.61458 13.2291,-6.61458"
       id="path3097"
       sodipodi:nodetypes="ccccccccccccc" />
    <path
       style="opacity:0.03;fill:none;stroke:#581c87;stroke-width:1.05833;stroke-linecap:round;stroke-linejoin:round;stroke-miterlimit:4;stroke-dasharray:none;stroke-opacity:1"
       d="m -1135.8459,34.326 13.2291,6.61458 13.2292,-6.61458 13.2291,6.61458 13.2291,-6.61458 13.2292,6.61458 13.2291,-6.61458 13.2291,6.61458 13.2292,-6.61458 13.2291,6.61458 13.2291,-6.61458 13.22921,6.61458 13.2291,-6.61458"
       id="path3099"
       sodipodi:nodetypes="ccccccccccccc" />
    <path
       style="opacity:0.03;fill:none;stroke:#581c87;stroke-width:1.05833;stroke-linecap:round;stroke-linejoin:round;stroke-miterlimit:4;stroke-dasharray:none;stroke-opacity:1"
       d="m -1135.8459,-6.95215 13.2291,6.61458 13.2292,-6.61458 13.2291,6.61458 13.2291,-6.61458 13.2292,6.61458 13.2291,-6.61458 13.2291,6.61458 13.2292,-6.61458 13.2291,6.61458 13.2291,-6.61458 13.22921,6.61458 13.2291,-6.61458"
       id="path3101"
       sodipodi:nodetypes="ccccccccccccc" />
    <path
       style="opacity:0.03;fill:none;stroke:#581c87;stroke-width:1.05833;stroke-linecap:round;stroke-linejoin:round;stroke-miterlimit:4;stroke-dasharray:none;stroke-opacity:1"
       d="m -1135.8459,20.56662 13.2291,6.61458 13.2292,-6.61458 13.2291,6.61458 13.2291,-6.61458 13.2292,6.61458 13.2291,-6.61458 13.2291,6.61458 13.2292,-6.61458 13.2291,6.61458 13.2291,-6.61458 13.22921,6.61458 13.2291,-6.61458"
       id="path3103"
       sodipodi:nodetypes="ccccccccccccc" />
    <path
       style="opacity:0.03;fill:none;stroke:#581c87;stroke-width:1.05833;stroke-linecap:round;stroke-linejoin:round;stroke-miterlimit:4;stroke-dasharray:none;stroke-opacity:1"
       d="m -1135.8459,41.205163 13.2291,6.61458 13.2292,-6.61458 13.2291,6.61458 13.2291,-6.61458 13.2292,6.61458 13.2291,-6.61458 13.2291,6.61458 13.2292,-6.61458 13.2291,6.61458 13.2291,-6.61458 13.22924,6.61458 13.2291,-6.61458"
       id="path3197"
       sodipodi:nodetypes="ccccccccccccc" />
    <path
       style="opacity:0.03;fill:none;stroke:#581c87;stroke-width:1.05833;stroke-linecap:round;stroke-linejoin:round;stroke-miterlimit:4;stroke-dasharray:none;stroke-opacity:1"
       d="m -1135.8459,48.084853 13.2291,6.61458 13.2292,-6.61458 13.2291,6.61458 13.2291,-6.61458 13.2292,6.61458 13.2291,-6.61458 13.2291,6.61458 13.2292,-6.61458 13.2291,6.61458 13.2291,-6.61458 13.22924,6.61458 13.2291,-6.61458"
       id="path3209"
       sodipodi:nodetypes="ccccccccccccc" />
  </g>
</svg>
